# Blender v2.77 (sub 0) OBJ File: 'station03.blend'
# www.blender.org
o Ring_LP_cylinder1_extract2_default
v 8.366742 4.800000 0.000001
v 8.205977 4.800001 -1.632270
v 8.205977 4.800000 1.632271
v 7.729862 4.800000 3.201814
v 6.956692 4.799999 4.648314
v 5.916180 4.799999 5.916181
v 4.648313 4.799999 6.956693
v 3.201813 4.799999 7.729863
v 1.632270 4.799999 8.205978
v 0.000000 4.799999 8.366743
v -1.632270 4.799999 8.205978
v -3.201813 4.799999 7.729863
v -4.648313 4.799999 6.956693
v -5.916180 4.799999 5.916181
v -6.956692 4.799999 4.648314
v -7.729862 4.800000 3.201814
v -8.205977 4.800000 1.632271
v -8.366742 4.800000 0.000001
v -8.205977 4.800001 -1.632270
v -7.729862 4.800001 -3.201813
v -6.956692 4.800001 -4.648312
v -5.916180 4.800001 -5.916179
v -4.648313 4.800001 -6.956691
v -3.201813 4.800002 -7.729861
v -1.632270 4.800002 -8.205976
v -0.000000 4.800002 -8.366741
v 1.632270 4.800002 -8.205976
v 3.201813 4.800002 -7.729861
v 4.648313 4.800001 -6.956691
v 5.916180 4.800001 -5.916179
v 6.956692 4.800001 -4.648312
v 7.729862 4.800001 -3.201813
v 6.859484 3.800000 0.000001
v 8.366742 3.800000 0.000001
v 8.205977 3.800000 1.632271
v 6.727681 3.800000 1.338220
v 7.729862 3.799999 3.201814
v 6.337337 3.799999 2.625012
v 6.956692 3.799999 4.648314
v 5.703453 3.799999 3.810926
v 5.916180 3.799999 5.916181
v 4.850388 3.799999 4.850388
v 4.648313 3.799999 6.956692
v 3.810925 3.799999 5.703453
v 3.201813 3.799999 7.729862
v 2.625011 3.799999 6.337337
v 1.632270 3.799999 8.205978
v 1.338219 3.799999 6.727682
v 0.000000 3.799999 8.366743
v 0.000000 3.799999 6.859485
v -1.632270 3.799999 8.205978
v -1.338219 3.799999 6.727682
v -3.201813 3.799999 7.729862
v -2.625011 3.799999 6.337337
v -4.648313 3.799999 6.956692
v -3.810925 3.799999 5.703453
v -5.916180 3.799999 5.916181
v -4.850388 3.799999 4.850388
v -6.956692 3.799999 4.648314
v -5.703453 3.799999 3.810926
v -7.729862 3.799999 3.201814
v -6.337337 3.799999 2.625012
v -8.205977 3.800000 1.632271
v -6.727681 3.800000 1.338220
v -8.366742 3.800000 0.000001
v -6.859484 3.800000 0.000001
v -8.205977 3.800000 -1.632270
v -6.727681 3.800000 -1.338218
v -7.729862 3.800000 -3.201813
v -6.337337 3.800000 -2.625010
v -6.956692 3.800001 -4.648313
v -5.703453 3.800001 -3.810925
v -5.916180 3.800001 -5.916180
v -4.850388 3.800001 -4.850387
v -4.648313 3.800001 -6.956691
v -3.810925 3.800001 -5.703452
v -3.201813 3.800001 -7.729861
v -2.625011 3.800001 -6.337337
v -1.632270 3.800001 -8.205976
v -1.338219 3.800001 -6.727681
v -0.000000 3.800001 -8.366741
v -0.000000 3.800001 -6.859484
v 1.632270 3.800001 -8.205976
v 1.338219 3.800001 -6.727681
v 3.201813 3.800001 -7.729861
v 2.625011 3.800001 -6.337337
v 4.648313 3.800001 -6.956691
v 3.810925 3.800001 -5.703452
v 5.916180 3.800001 -5.916180
v 4.850388 3.800001 -4.850387
v 6.956692 3.800001 -4.648313
v 5.703453 3.800001 -3.810925
v 7.729862 3.800000 -3.201813
v 6.337337 3.800000 -2.625010
v 8.205977 3.800000 -1.632270
v 6.727681 3.800000 -1.338218
vt 0.8212 0.6718
vt 0.8915 0.7101
vt 0.8430 0.7825
vt 0.7815 0.7313
vt 0.7813 0.8442
vt 0.7310 0.7819
vt 0.7088 0.8926
vt 0.6716 0.8218
vt 0.6283 0.9260
vt 0.6056 0.8492
vt 0.5427 0.9430
vt 0.5355 0.8633
vt 0.4555 0.9429
vt 0.4640 0.8633
vt 0.3700 0.9257
vt 0.3939 0.8493
vt 0.2895 0.8922
vt 0.3279 0.8220
vt 0.2171 0.8436
vt 0.2684 0.7822
vt 0.1555 0.7818
vt 0.2178 0.7316
vt 0.1072 0.7092
vt 0.1781 0.6721
vt 0.0739 0.6286
vt 0.1507 0.6060
vt 0.0570 0.5430
vt 0.1368 0.5358
vt 0.0571 0.4558
vt 0.1367 0.4643
vt 0.0742 0.3703
vt 0.1506 0.3941
vt 0.1076 0.2898
vt 0.1779 0.3280
vt 0.1561 0.2173
vt 0.2176 0.2685
vt 0.2178 0.1557
vt 0.2681 0.2179
vt 0.2903 0.1073
vt 0.3275 0.1781
vt 0.3709 0.0740
vt 0.3935 0.1507
vt 0.4565 0.0570
vt 0.4636 0.1367
vt 0.5437 0.0571
vt 0.5351 0.1367
vt 0.6292 0.0743
vt 0.6053 0.1506
vt 0.7097 0.1077
vt 0.6713 0.1780
vt 0.7821 0.1563
vt 0.7308 0.2177
vt 0.8437 0.2180
vt 0.7814 0.2683
vt 0.8920 0.2906
vt 0.8211 0.3278
vt 0.9253 0.3713
vt 0.8485 0.3938
vt 0.9422 0.4568
vt 0.8625 0.4640
vt 0.9421 0.5440
vt 0.8625 0.5355
vt 0.9250 0.6295
vt 0.8485 0.6057
vt 0.9422 0.7366
vt 0.8876 0.8185
vt 0.8181 0.8881
vt 0.7363 0.9429
vt 0.6454 0.9806
vt 0.5488 0.9999
vt 0.4503 0.9999
vt 0.3538 0.9806
vt 0.2629 0.9429
vt 0.1810 0.8881
vt 0.1115 0.8185
vt 0.0569 0.7366
vt 0.0193 0.6456
vt 0.0001 0.5491
vt 0.0001 0.4507
vt 0.0193 0.3541
vt 0.0569 0.2632
vt 0.1116 0.1814
vt 0.1811 0.1117
vt 0.2629 0.0570
vt 0.3539 0.0193
vt 0.4504 0.0001
vt 0.5488 0.0001
vt 0.6454 0.0193
vt 0.7363 0.0570
vt 0.8181 0.1118
vt 0.8877 0.1814
vt 0.9423 0.2633
vt 0.9799 0.3542
vt 0.9991 0.4508
vt 0.9991 0.5492
vt 0.9799 0.6457
vn -0.0000 -1.0000 -0.0000
vn 1.0000 0.0000 0.0000
vn 0.9808 0.0000 0.1951
vn 0.9239 -0.0000 0.3827
vn 0.8315 -0.0000 0.5556
vn 0.7071 -0.0000 0.7071
vn 0.5556 -0.0000 0.8315
vn 0.3827 -0.0000 0.9239
vn 0.1951 -0.0000 0.9808
vn 0.0000 0.0000 1.0000
vn -0.1951 -0.0000 0.9808
vn -0.3827 -0.0000 0.9239
vn -0.5556 -0.0000 0.8315
vn -0.7071 -0.0000 0.7071
vn -0.8315 -0.0000 0.5556
vn -0.9239 -0.0000 0.3827
vn -0.9808 0.0000 0.1951
vn -1.0000 0.0000 0.0000
vn -0.9808 -0.0000 -0.1951
vn -0.9239 0.0000 -0.3827
vn -0.8315 0.0000 -0.5556
vn -0.7071 0.0000 -0.7071
vn -0.5556 0.0000 -0.8315
vn -0.3827 0.0000 -0.9239
vn -0.1951 0.0000 -0.9808
vn 0.0000 0.0000 -1.0000
vn 0.1951 0.0000 -0.9808
vn 0.3827 0.0000 -0.9239
vn 0.5556 0.0000 -0.8315
vn 0.7071 0.0000 -0.7071
vn 0.8315 0.0000 -0.5556
vn 0.9239 0.0000 -0.3827
vn 0.9808 -0.0000 -0.1951
s 1
f 33/1/1 34/2/1 35/3/1 36/4/1
f 36/4/1 35/3/1 37/5/1 38/6/1
f 38/6/1 37/5/1 39/7/1 40/8/1
f 40/8/1 39/7/1 41/9/1 42/10/1
f 42/10/1 41/9/1 43/11/1 44/12/1
f 44/12/1 43/11/1 45/13/1 46/14/1
f 46/14/1 45/13/1 47/15/1 48/16/1
f 48/16/1 47/15/1 49/17/1 50/18/1
f 50/18/1 49/17/1 51/19/1 52/20/1
f 52/20/1 51/19/1 53/21/1 54/22/1
f 54/22/1 53/21/1 55/23/1 56/24/1
f 56/24/1 55/23/1 57/25/1 58/26/1
f 58/26/1 57/25/1 59/27/1 60/28/1
f 60/28/1 59/27/1 61/29/1 62/30/1
f 62/30/1 61/29/1 63/31/1 64/32/1
f 64/32/1 63/31/1 65/33/1 66/34/1
f 66/34/1 65/33/1 67/35/1 68/36/1
f 68/36/1 67/35/1 69/37/1 70/38/1
f 70/38/1 69/37/1 71/39/1 72/40/1
f 72/40/1 71/39/1 73/41/1 74/42/1
f 74/42/1 73/41/1 75/43/1 76/44/1
f 76/44/1 75/43/1 77/45/1 78/46/1
f 78/46/1 77/45/1 79/47/1 80/48/1
f 80/48/1 79/47/1 81/49/1 82/50/1
f 82/50/1 81/49/1 83/51/1 84/52/1
f 84/52/1 83/51/1 85/53/1 86/54/1
f 86/54/1 85/53/1 87/55/1 88/56/1
f 88/56/1 87/55/1 89/57/1 90/58/1
f 90/58/1 89/57/1 91/59/1 92/60/1
f 92/60/1 91/59/1 93/61/1 94/62/1
f 94/62/1 93/61/1 95/63/1 96/64/1
f 96/64/1 95/63/1 34/2/1 33/1/1
f 1/65/2 3/66/3 35/3/3 34/2/2
f 3/66/3 4/67/4 37/5/4 35/3/3
f 4/67/4 5/68/5 39/7/5 37/5/4
f 5/68/5 6/69/6 41/9/6 39/7/5
f 6/69/6 7/70/7 43/11/7 41/9/6
f 7/70/7 8/71/8 45/13/8 43/11/7
f 8/71/8 9/72/9 47/15/9 45/13/8
f 9/72/9 10/73/10 49/17/10 47/15/9
f 10/73/10 11/74/11 51/19/11 49/17/10
f 11/74/11 12/75/12 53/21/12 51/19/11
f 12/75/12 13/76/13 55/23/13 53/21/12
f 13/76/13 14/77/14 57/25/14 55/23/13
f 14/77/14 15/78/15 59/27/15 57/25/14
f 15/78/15 16/79/16 61/29/16 59/27/15
f 16/79/16 17/80/17 63/31/17 61/29/16
f 17/80/17 18/81/18 65/33/18 63/31/17
f 18/81/18 19/82/19 67/35/19 65/33/18
f 19/82/19 20/83/20 69/37/20 67/35/19
f 20/83/20 21/84/21 71/39/21 69/37/20
f 21/84/21 22/85/22 73/41/22 71/39/21
f 22/85/22 23/86/23 75/43/23 73/41/22
f 23/86/23 24/87/24 77/45/24 75/43/23
f 24/87/24 25/88/25 79/47/25 77/45/24
f 25/88/25 26/89/26 81/49/26 79/47/25
f 26/89/26 27/90/27 83/51/27 81/49/26
f 27/90/27 28/91/28 85/53/28 83/51/27
f 28/91/28 29/92/29 87/55/29 85/53/28
f 29/92/29 30/93/30 89/57/30 87/55/29
f 30/93/30 31/94/31 91/59/31 89/57/30
f 31/94/31 32/95/32 93/61/32 91/59/31
f 32/95/32 2/96/33 95/63/33 93/61/32
f 34/2/2 95/63/33 2/96/33 1/65/2
